<?xml version="1.0" encoding="UTF-8"?>
<svg xmlns="http://www.w3.org/2000/svg" xmlns:xlink="http://www.w3.org/1999/xlink" width="720px" height="px" viewBox="0 0 720 720" version="1.1">
<g id="surface1">
<rect x="0" y="0" width="720" height="720" style="fill:rgb(56.862748%,93.333334%,56.862748%);fill-opacity:1;stroke:none;"/>
<path style=" stroke:none;fill-rule:nonzero;fill:rgb(99.215686%,72.941178%,16.862746%);fill-opacity:0.839216;" d="M 720 864 C 640.472656 864 576 799.527344 576 720 C 576 640.472656 640.472656 576 720 576 C 799.527344 576 864 640.472656 864 720 C 864 799.527344 799.527344 864 720 864 Z M 720 144 C 640.472656 144 576 79.527344 576 0 C 576 -79.527344 640.472656 -144 720 -144 C 799.527344 -144 864 -79.527344 864 0 C 864 79.527344 799.527344 144 720 144 Z M 0 864 C -79.527344 864 -144 799.527344 -144 720 C -144 640.472656 -79.527344 576 0 576 C 79.527344 576 144 640.472656 144 720 C 144 799.527344 79.527344 864 0 864 Z M 0 144 C -79.527344 144 -144 79.527344 -144 0 C -144 -79.527344 -79.527344 -144 0 -144 C 79.527344 -144 144 -79.527344 144 0 C 144 79.527344 79.527344 144 0 144 Z M 360 504 C 280.472656 504 216 439.527344 216 360 C 216 280.472656 280.472656 216 360 216 C 439.527344 216 504 280.472656 504 360 C 504 439.527344 439.527344 504 360 504 Z M 360 504 "/>
<path style=" stroke:none;fill-rule:nonzero;fill:rgb(13.333334%,75.294119%,76.47059%);fill-opacity:1;" d="M 0 432 C -39.765625 432 -72 399.765625 -72 360 C -72 320.234375 -39.765625 288 0 288 C 39.765625 288 72 320.234375 72 360 C 72 399.765625 39.765625 432 0 432 Z M 720 432 C 680.234375 432 648 399.765625 648 360 C 648 320.234375 680.234375 288 720 288 C 759.765625 288 792 320.234375 792 360 C 792 399.765625 759.765625 432 720 432 Z M 360 72 C 320.234375 72 288 39.765625 288 0 C 288 -39.765625 320.234375 -72 360 -72 C 399.765625 -72 432 -39.765625 432 0 C 432 39.765625 399.765625 72 360 72 Z M 360 792 C 320.234375 792 288 759.765625 288 720 C 288 680.234375 320.234375 648 360 648 C 399.765625 648 432 680.234375 432 720 C 432 759.765625 399.765625 792 360 792 Z M 360 792 "/>
</g>
</svg>
